<?xml version="1.0" encoding="utf-8" standalone="no"?>
<!DOCTYPE svg PUBLIC "-//W3C//DTD SVG 1.1//EN"
  "http://www.w3.org/Graphics/SVG/1.1/DTD/svg11.dtd">
<svg xmlns:xlink="http://www.w3.org/1999/xlink" width="540.242852pt" height="568.08pt" viewBox="0 0 540.242852 568.08" xmlns="http://www.w3.org/2000/svg" version="1.1">
 <metadata>
  <rdf:RDF xmlns:dc="http://purl.org/dc/elements/1.1/" xmlns:cc="http://creativecommons.org/ns#" xmlns:rdf="http://www.w3.org/1999/02/22-rdf-syntax-ns#">
   <cc:Work>
    <dc:type rdf:resource="http://purl.org/dc/dcmitype/StillImage"/>
    <dc:format>image/svg+xml</dc:format>
    <dc:creator>
     <cc:Agent>
      <dc:title>Matplotlib v3.11.1, https://matplotlib.org/</dc:title>
     </cc:Agent>
    </dc:creator>
   </cc:Work>
  </rdf:RDF>
 </metadata>
 <defs>
  <style type="text/css">*{stroke-linejoin: round; stroke-linecap: butt}</style>
 </defs>
 <g id="figure_1">
  <g id="patch_1">
   <path d="M 0 568.08 
L 540.242852 568.08 
L 540.242852 0 
L 0 0 
z
" style="fill: #fcfcfa"/>
  </g>
  <g id="axes_1">
   <g id="patch_2">
    <path d="M 57.83543 524.728633 
L 533.042852 524.728633 
L 533.042852 74.664 
L 57.83543 74.664 
z
" style="fill: #fcfcfa"/>
   </g>
   <g id="matplotlib.axis_1">
    <g id="xtick_1">
     <g id="line2d_1"/>
     <g id="text_1">
      <text style="font-size: 15px; font-family: 'Arial', 'Verdana', 'DejaVu Sans', sans-serif; fill: #141413" transform="translate(157.030806 540.273311)">Control</text>
      <text style="font-size: 15px; font-family: 'Arial', 'Verdana', 'DejaVu Sans', sans-serif; fill: #141413" transform="translate(164.314009 556.598994)">n=40</text>
     </g>
    </g>
    <g id="xtick_2">
     <g id="line2d_2"/>
     <g id="text_2">
      <text style="font-size: 15px; font-family: 'Arial', 'Verdana', 'DejaVu Sans', sans-serif; fill: #141413" transform="translate(384.104897 540.273311)">Treated</text>
      <text style="font-size: 15px; font-family: 'Arial', 'Verdana', 'DejaVu Sans', sans-serif; fill: #141413" transform="translate(392.779116 556.598994)">n=55</text>
     </g>
    </g>
   </g>
   <g id="matplotlib.axis_2">
    <g id="ytick_1">
     <g id="line2d_3">
      <path d="M 57.83543 485.498371 
L 533.042852 485.498371 
" clip-path="url(#pbd5fa4efa2)" style="fill: none; stroke: #e7e5dd; stroke-linecap: square"/>
     </g>
     <g id="line2d_4">
      <defs>
       <path id="m5bc738e78b" d="M 0 0 
L -4 0 
" style="stroke: #141413; stroke-width: 1.2"/>
      </defs>
      <g>
       <use xlink:href="#m5bc738e78b" x="57.83543" y="485.498371" style="fill: #141413; stroke: #141413; stroke-width: 1.2"/>
      </g>
     </g>
     <g id="text_3">
      <text style="font-size: 16px; font-family: 'Arial', 'Verdana', 'DejaVu Sans', sans-serif; text-anchor: end; fill: #141413" x="50.33543" y="491.322589" transform="rotate(-0 50.33543 491.322589)">−4</text>
     </g>
    </g>
    <g id="ytick_2">
     <g id="line2d_5">
      <path d="M 57.83543 427.097449 
L 533.042852 427.097449 
" clip-path="url(#pbd5fa4efa2)" style="fill: none; stroke: #e7e5dd; stroke-linecap: square"/>
     </g>
     <g id="line2d_6">
      <g>
       <use xlink:href="#m5bc738e78b" x="57.83543" y="427.097449" style="fill: #141413; stroke: #141413; stroke-width: 1.2"/>
      </g>
     </g>
     <g id="text_4">
      <text style="font-size: 16px; font-family: 'Arial', 'Verdana', 'DejaVu Sans', sans-serif; text-anchor: end; fill: #141413" x="50.33543" y="432.921667" transform="rotate(-0 50.33543 432.921667)">−3</text>
     </g>
    </g>
    <g id="ytick_3">
     <g id="line2d_7">
      <path d="M 57.83543 368.696527 
L 533.042852 368.696527 
" clip-path="url(#pbd5fa4efa2)" style="fill: none; stroke: #e7e5dd; stroke-linecap: square"/>
     </g>
     <g id="line2d_8">
      <g>
       <use xlink:href="#m5bc738e78b" x="57.83543" y="368.696527" style="fill: #141413; stroke: #141413; stroke-width: 1.2"/>
      </g>
     </g>
     <g id="text_5">
      <text style="font-size: 16px; font-family: 'Arial', 'Verdana', 'DejaVu Sans', sans-serif; text-anchor: end; fill: #141413" x="50.33543" y="374.520745" transform="rotate(-0 50.33543 374.520745)">−2</text>
     </g>
    </g>
    <g id="ytick_4">
     <g id="line2d_9">
      <path d="M 57.83543 310.295605 
L 533.042852 310.295605 
" clip-path="url(#pbd5fa4efa2)" style="fill: none; stroke: #e7e5dd; stroke-linecap: square"/>
     </g>
     <g id="line2d_10">
      <g>
       <use xlink:href="#m5bc738e78b" x="57.83543" y="310.295605" style="fill: #141413; stroke: #141413; stroke-width: 1.2"/>
      </g>
     </g>
     <g id="text_6">
      <text style="font-size: 16px; font-family: 'Arial', 'Verdana', 'DejaVu Sans', sans-serif; text-anchor: end; fill: #141413" x="50.33543" y="316.119823" transform="rotate(-0 50.33543 316.119823)">−1</text>
     </g>
    </g>
    <g id="ytick_5">
     <g id="line2d_11">
      <path d="M 57.83543 251.894682 
L 533.042852 251.894682 
" clip-path="url(#pbd5fa4efa2)" style="fill: none; stroke: #e7e5dd; stroke-linecap: square"/>
     </g>
     <g id="line2d_12">
      <g>
       <use xlink:href="#m5bc738e78b" x="57.83543" y="251.894682" style="fill: #141413; stroke: #141413; stroke-width: 1.2"/>
      </g>
     </g>
     <g id="text_7">
      <text style="font-size: 16px; font-family: 'Arial', 'Verdana', 'DejaVu Sans', sans-serif; text-anchor: end; fill: #141413" x="50.33543" y="257.718901" transform="rotate(-0 50.33543 257.718901)">0</text>
     </g>
    </g>
    <g id="ytick_6">
     <g id="line2d_13">
      <path d="M 57.83543 193.49376 
L 533.042852 193.49376 
" clip-path="url(#pbd5fa4efa2)" style="fill: none; stroke: #e7e5dd; stroke-linecap: square"/>
     </g>
     <g id="line2d_14">
      <g>
       <use xlink:href="#m5bc738e78b" x="57.83543" y="193.49376" style="fill: #141413; stroke: #141413; stroke-width: 1.2"/>
      </g>
     </g>
     <g id="text_8">
      <text style="font-size: 16px; font-family: 'Arial', 'Verdana', 'DejaVu Sans', sans-serif; text-anchor: end; fill: #141413" x="50.33543" y="199.317979" transform="rotate(-0 50.33543 199.317979)">1</text>
     </g>
    </g>
    <g id="ytick_7">
     <g id="line2d_15">
      <path d="M 57.83543 135.092838 
L 533.042852 135.092838 
" clip-path="url(#pbd5fa4efa2)" style="fill: none; stroke: #e7e5dd; stroke-linecap: square"/>
     </g>
     <g id="line2d_16">
      <g>
       <use xlink:href="#m5bc738e78b" x="57.83543" y="135.092838" style="fill: #141413; stroke: #141413; stroke-width: 1.2"/>
      </g>
     </g>
     <g id="text_9">
      <text style="font-size: 16px; font-family: 'Arial', 'Verdana', 'DejaVu Sans', sans-serif; text-anchor: end; fill: #141413" x="50.33543" y="140.917057" transform="rotate(-0 50.33543 140.917057)">2</text>
     </g>
    </g>
    <g id="text_10">
     <text style="font-weight: 700; font-size: 18px; font-family: 'Arial', 'Verdana', 'DejaVu Sans', sans-serif; text-anchor: middle; fill: #141413" x="20.304492" y="314.698471" transform="rotate(-90 20.304492 314.698471)">Measurement (units)</text>
    </g>
   </g>
   <g id="FillBetweenPolyCollection_1">
    <path d="M 186.57145 387.678624 
L 175.841725 387.678624 
L 175.793299 385.426081 
L 175.775426 383.173539 
L 175.781001 380.920996 
L 175.800785 378.668454 
L 175.823584 376.415912 
L 175.836514 374.163369 
L 175.825338 371.910827 
L 175.77485 369.658284 
L 175.669292 367.405742 
L 175.492788 365.1532 
L 175.229767 362.900657 
L 174.865355 360.648115 
L 174.385738 358.395572 
L 173.778452 356.14303 
L 173.032619 353.890488 
L 172.139111 351.637945 
L 171.090645 349.385403 
L 169.88181 347.13286 
L 168.509046 344.880318 
L 166.97058 342.627776 
L 165.266335 340.375233 
L 163.397844 338.122691 
L 161.368161 335.870148 
L 159.181819 333.617606 
L 156.844808 331.365064 
L 154.364615 329.112521 
L 151.750292 326.859979 
L 149.012563 324.607437 
L 146.163943 322.354894 
L 143.21884 320.102352 
L 140.193621 317.849809 
L 137.106601 315.597267 
L 133.977933 313.344725 
L 130.829384 311.092182 
L 127.68397 308.83964 
L 124.565469 306.587097 
L 121.497823 304.334555 
L 118.504459 302.082013 
L 115.607567 299.82947 
L 112.827405 297.576928 
L 110.181665 295.324385 
L 107.684966 293.071843 
L 105.348519 290.819301 
L 103.179998 288.566758 
L 101.183627 286.314216 
L 99.36049 284.061673 
L 97.709032 281.809131 
L 96.225721 279.556589 
L 94.905808 277.304046 
L 93.744127 275.051504 
L 92.735869 272.798961 
L 91.877258 270.546419 
L 91.166096 268.293877 
L 90.602104 266.041334 
L 90.187063 263.788792 
L 89.92473 261.536249 
L 89.820545 259.283707 
L 89.881153 257.031165 
L 90.113785 254.778622 
L 90.52554 252.52608 
L 91.122622 250.273538 
L 91.909595 248.020995 
L 92.888699 245.768453 
L 94.059279 243.51591 
L 95.417365 241.263368 
L 96.955426 239.010826 
L 98.662324 236.758283 
L 100.523457 234.505741 
L 102.521097 232.253198 
L 104.634894 230.000656 
L 106.842522 227.748114 
L 109.120421 225.495571 
L 111.444606 223.243029 
L 113.791484 220.990486 
L 116.138646 218.737944 
L 118.465583 216.485402 
L 120.754297 214.232859 
L 122.989781 211.980317 
L 125.160348 209.727774 
L 127.2578 207.475232 
L 129.277444 205.22269 
L 131.217962 202.970147 
L 133.081154 200.717605 
L 134.871572 198.465062 
L 136.596079 196.21252 
L 138.263346 193.959978 
L 139.883319 191.707435 
L 141.46667 189.454893 
L 143.024259 187.20235 
L 144.566618 184.949808 
L 146.103467 182.697266 
L 147.643287 180.444723 
L 149.192943 178.192181 
L 150.757383 175.939639 
L 152.339415 173.687096 
L 153.939575 171.434554 
L 155.556082 169.182011 
L 157.184901 166.929469 
L 158.819901 164.676927 
L 203.593273 164.676927 
L 203.593273 164.676927 
L 205.228273 166.929469 
L 206.857093 169.182011 
L 208.4736 171.434554 
L 210.073759 173.687096 
L 211.655792 175.939639 
L 213.220232 178.192181 
L 214.769887 180.444723 
L 216.309707 182.697266 
L 217.846557 184.949808 
L 219.388915 187.20235 
L 220.946504 189.454893 
L 222.529855 191.707435 
L 224.149828 193.959978 
L 225.817096 196.21252 
L 227.541603 198.465062 
L 229.332021 200.717605 
L 231.195212 202.970147 
L 233.13573 205.22269 
L 235.155375 207.475232 
L 237.252827 209.727774 
L 239.423394 211.980317 
L 241.658878 214.232859 
L 243.947591 216.485402 
L 246.274528 218.737944 
L 248.621691 220.990486 
L 250.968569 223.243029 
L 253.292754 225.495571 
L 255.570653 227.748114 
L 257.77828 230.000656 
L 259.892078 232.253198 
L 261.889718 234.505741 
L 263.75085 236.758283 
L 265.457748 239.010826 
L 266.99581 241.263368 
L 268.353896 243.51591 
L 269.524476 245.768453 
L 270.50358 248.020995 
L 271.290553 250.273538 
L 271.887635 252.52608 
L 272.29939 254.778622 
L 272.532022 257.031165 
L 272.59263 259.283707 
L 272.488444 261.536249 
L 272.226111 263.788792 
L 271.81107 266.041334 
L 271.247078 268.293877 
L 270.535916 270.546419 
L 269.677306 272.798961 
L 268.669047 275.051504 
L 267.507367 277.304046 
L 266.187454 279.556589 
L 264.704143 281.809131 
L 263.052685 284.061673 
L 261.229547 286.314216 
L 259.233176 288.566758 
L 257.064655 290.819301 
L 254.728208 293.071843 
L 252.231509 295.324385 
L 249.585769 297.576928 
L 246.805608 299.82947 
L 243.908716 302.082013 
L 240.915351 304.334555 
L 237.847706 306.587097 
L 234.729205 308.83964 
L 231.58379 311.092182 
L 228.435241 313.344725 
L 225.306574 315.597267 
L 222.219553 317.849809 
L 219.194334 320.102352 
L 216.249232 322.354894 
L 213.400612 324.607437 
L 210.662883 326.859979 
L 208.04856 329.112521 
L 205.568366 331.365064 
L 203.231356 333.617606 
L 201.045013 335.870148 
L 199.015331 338.122691 
L 197.146839 340.375233 
L 195.442595 342.627776 
L 193.904128 344.880318 
L 192.531364 347.13286 
L 191.322529 349.385403 
L 190.274063 351.637945 
L 189.380556 353.890488 
L 188.634723 356.14303 
L 188.027436 358.395572 
L 187.547819 360.648115 
L 187.183408 362.900657 
L 186.920386 365.1532 
L 186.743883 367.405742 
L 186.638325 369.658284 
L 186.587836 371.910827 
L 186.576661 374.163369 
L 186.589591 376.415912 
L 186.612389 378.668454 
L 186.632173 380.920996 
L 186.637749 383.173539 
L 186.619875 385.426081 
L 186.57145 387.678624 
z
" clip-path="url(#pbd5fa4efa2)" style="fill: #e8a838; fill-opacity: 0.28"/>
   </g>
   <g id="FillBetweenPolyCollection_2">
    <path d="M 419.226893 464.720015 
L 400.116495 464.720015 
L 399.17134 461.742699 
L 398.122084 458.765383 
L 396.957626 455.788067 
L 395.667515 452.810751 
L 394.242457 449.833434 
L 392.674836 446.856118 
L 390.959196 443.878802 
L 389.092686 440.901486 
L 387.075416 437.92417 
L 384.910702 434.946854 
L 382.605195 431.969538 
L 380.168855 428.992221 
L 377.614791 426.014905 
L 374.95895 423.037589 
L 372.219684 420.060273 
L 369.417211 417.082957 
L 366.572999 414.105641 
L 363.709113 411.128324 
L 360.847556 408.151008 
L 358.00965 405.173692 
L 355.215483 402.196376 
L 352.483453 399.21906 
L 349.829929 396.241744 
L 347.269039 393.264428 
L 344.812587 390.287111 
L 342.470076 387.309795 
L 340.248836 384.332479 
L 338.154218 381.355163 
L 336.189828 378.377847 
L 334.357773 375.400531 
L 332.658884 372.423215 
L 331.092899 369.445898 
L 329.658596 366.468582 
L 328.353846 363.491266 
L 327.175625 360.51395 
L 326.119963 357.536634 
L 325.181868 354.559318 
L 324.355245 351.582002 
L 323.632843 348.604685 
L 323.006238 345.627369 
L 322.465899 342.650053 
L 322.001338 339.672737 
L 321.601355 336.695421 
L 321.254376 333.718105 
L 320.948875 330.740789 
L 320.673856 327.763472 
L 320.419365 324.786156 
L 320.176999 321.80884 
L 319.940375 318.831524 
L 319.705515 315.854208 
L 319.471125 312.876892 
L 319.238728 309.899576 
L 319.01264 306.922259 
L 318.799773 303.944943 
L 318.609281 300.967627 
L 318.45205 297.990311 
L 318.340057 295.012995 
L 318.285651 292.035679 
L 318.300772 289.058363 
L 318.396172 286.081046 
L 318.580685 283.10373 
L 318.86058 280.126414 
L 319.239054 277.149098 
L 319.71589 274.171782 
L 320.287313 271.194466 
L 320.946053 268.217149 
L 321.681613 265.239833 
L 322.48075 262.262517 
L 323.328125 259.285201 
L 324.207101 256.307885 
L 325.10065 253.330569 
L 325.992305 250.353253 
L 326.867123 247.375936 
L 327.712592 244.39862 
L 328.51944 241.421304 
L 329.282287 238.443988 
L 330.000122 235.466672 
L 330.676555 232.489356 
L 331.319845 229.51204 
L 331.942689 226.534723 
L 332.561789 223.557407 
L 333.19721 220.580091 
L 333.871565 217.602775 
L 334.609071 214.625459 
L 335.434507 211.648143 
L 336.372148 208.670827 
L 337.4447 205.69351 
L 338.672306 202.716194 
L 340.071657 199.738878 
L 341.655244 196.761562 
L 343.430796 193.784246 
L 345.400902 190.80693 
L 347.562853 187.829614 
L 349.908677 184.852297 
L 352.425392 181.874981 
L 355.095423 178.897665 
L 357.897189 175.920349 
L 360.80581 172.943033 
L 363.793909 169.965717 
L 455.549479 169.965717 
L 455.549479 169.965717 
L 458.537578 172.943033 
L 461.446199 175.920349 
L 464.247965 178.897665 
L 466.917996 181.874981 
L 469.434711 184.852297 
L 471.780535 187.829614 
L 473.942485 190.80693 
L 475.912592 193.784246 
L 477.688144 196.761562 
L 479.271731 199.738878 
L 480.671082 202.716194 
L 481.898688 205.69351 
L 482.97124 208.670827 
L 483.908881 211.648143 
L 484.734317 214.625459 
L 485.471823 217.602775 
L 486.146178 220.580091 
L 486.781599 223.557407 
L 487.400698 226.534723 
L 488.023543 229.51204 
L 488.666833 232.489356 
L 489.343266 235.466672 
L 490.061101 238.443988 
L 490.823948 241.421304 
L 491.630796 244.39862 
L 492.476265 247.375936 
L 493.351083 250.353253 
L 494.242738 253.330569 
L 495.136287 256.307885 
L 496.015263 259.285201 
L 496.862638 262.262517 
L 497.661775 265.239833 
L 498.397335 268.217149 
L 499.056075 271.194466 
L 499.627498 274.171782 
L 500.104334 277.149098 
L 500.482808 280.126414 
L 500.762702 283.10373 
L 500.947215 286.081046 
L 501.042616 289.058363 
L 501.057737 292.035679 
L 501.003331 295.012995 
L 500.891338 297.990311 
L 500.734107 300.967627 
L 500.543615 303.944943 
L 500.330748 306.922259 
L 500.10466 309.899576 
L 499.872263 312.876892 
L 499.637873 315.854208 
L 499.403013 318.831524 
L 499.166389 321.80884 
L 498.924023 324.786156 
L 498.669532 327.763472 
L 498.394513 330.740789 
L 498.089012 333.718105 
L 497.742033 336.695421 
L 497.34205 339.672737 
L 496.877489 342.650053 
L 496.33715 345.627369 
L 495.710545 348.604685 
L 494.988143 351.582002 
L 494.16152 354.559318 
L 493.223425 357.536634 
L 492.167763 360.51395 
L 490.989542 363.491266 
L 489.684792 366.468582 
L 488.250489 369.445898 
L 486.684504 372.423215 
L 484.985615 375.400531 
L 483.15356 378.377847 
L 481.18917 381.355163 
L 479.094552 384.332479 
L 476.873312 387.309795 
L 474.530801 390.287111 
L 472.074348 393.264428 
L 469.513459 396.241744 
L 466.859935 399.21906 
L 464.127905 402.196376 
L 461.333738 405.173692 
L 458.495832 408.151008 
L 455.634275 411.128324 
L 452.770389 414.105641 
L 449.926177 417.082957 
L 447.123704 420.060273 
L 444.384438 423.037589 
L 441.728597 426.014905 
L 439.174533 428.992221 
L 436.738193 431.969538 
L 434.432686 434.946854 
L 432.267972 437.92417 
L 430.250701 440.901486 
L 428.384192 443.878802 
L 426.668552 446.856118 
L 425.10093 449.833434 
L 423.675873 452.810751 
L 422.385762 455.788067 
L 421.221304 458.765383 
L 420.172048 461.742699 
L 419.226893 464.720015 
z
" clip-path="url(#pbd5fa4efa2)" style="fill: #7c9a6e; fill-opacity: 0.28"/>
   </g>
   <g id="patch_3">
    <path d="M 57.83543 524.728633 
L 57.83543 74.664 
" style="fill: none; stroke: #e7e5dd; stroke-linejoin: miter; stroke-linecap: square"/>
   </g>
   <g id="patch_4">
    <path d="M 57.83543 524.728633 
L 533.042852 524.728633 
" style="fill: none; stroke: #5c5b57; stroke-width: 1.2; stroke-linejoin: miter; stroke-linecap: square"/>
   </g>
   <g id="PathCollection_1">
    <defs>
     <path id="mdf682b601d" d="M 0 2.738613 
C 0.726289 2.738613 1.422928 2.450055 1.936492 1.936492 
C 2.450055 1.422928 2.738613 0.726289 2.738613 0 
C 2.738613 -0.726289 2.450055 -1.422928 1.936492 -1.936492 
C 1.422928 -2.450055 0.726289 -2.738613 0 -2.738613 
C -0.726289 -2.738613 -1.422928 -2.450055 -1.936492 -1.936492 
C -2.450055 -1.422928 -2.738613 -0.726289 -2.738613 0 
C -2.738613 0.726289 -2.450055 1.422928 -1.936492 1.936492 
C -1.422928 2.450055 -0.726289 2.738613 0 2.738613 
z
" style="stroke: #b97c10; stroke-opacity: 0.85; stroke-width: 0.8"/>
    </defs>
    <g clip-path="url(#pbd5fa4efa2)">
     <use xlink:href="#mdf682b601d" x="225.06668" y="244.551922" style="fill: #e8a838; fill-opacity: 0.85; stroke: #b97c10; stroke-opacity: 0.85; stroke-width: 0.8"/>
     <use xlink:href="#mdf682b601d" x="141.838428" y="259.609728" style="fill: #e8a838; fill-opacity: 0.85; stroke: #b97c10; stroke-opacity: 0.85; stroke-width: 0.8"/>
     <use xlink:href="#mdf682b601d" x="150.033217" y="214.493409" style="fill: #e8a838; fill-opacity: 0.85; stroke: #b97c10; stroke-opacity: 0.85; stroke-width: 0.8"/>
     <use xlink:href="#mdf682b601d" x="152.477609" y="245.768419" style="fill: #e8a838; fill-opacity: 0.85; stroke: #b97c10; stroke-opacity: 0.85; stroke-width: 0.8"/>
     <use xlink:href="#mdf682b601d" x="211.615966" y="283.178268" style="fill: #e8a838; fill-opacity: 0.85; stroke: #b97c10; stroke-opacity: 0.85; stroke-width: 0.8"/>
     <use xlink:href="#mdf682b601d" x="238.351265" y="230.777198" style="fill: #e8a838; fill-opacity: 0.85; stroke: #b97c10; stroke-opacity: 0.85; stroke-width: 0.8"/>
     <use xlink:href="#mdf682b601d" x="189.873466" y="175.739877" style="fill: #e8a838; fill-opacity: 0.85; stroke: #b97c10; stroke-opacity: 0.85; stroke-width: 0.8"/>
     <use xlink:href="#mdf682b601d" x="205.6192" y="196.584281" style="fill: #e8a838; fill-opacity: 0.85; stroke: #b97c10; stroke-opacity: 0.85; stroke-width: 0.8"/>
     <use xlink:href="#mdf682b601d" x="189.858176" y="292.993469" style="fill: #e8a838; fill-opacity: 0.85; stroke: #b97c10; stroke-opacity: 0.85; stroke-width: 0.8"/>
     <use xlink:href="#mdf682b601d" x="202.844903" y="325.796463" style="fill: #e8a838; fill-opacity: 0.85; stroke: #b97c10; stroke-opacity: 0.85; stroke-width: 0.8"/>
     <use xlink:href="#mdf682b601d" x="233.096648" y="288.294486" style="fill: #e8a838; fill-opacity: 0.85; stroke: #b97c10; stroke-opacity: 0.85; stroke-width: 0.8"/>
     <use xlink:href="#mdf682b601d" x="158.68371" y="249.481207" style="fill: #e8a838; fill-opacity: 0.85; stroke: #b97c10; stroke-opacity: 0.85; stroke-width: 0.8"/>
     <use xlink:href="#mdf682b601d" x="185.545204" y="387.678624" style="fill: #e8a838; fill-opacity: 0.85; stroke: #b97c10; stroke-opacity: 0.85; stroke-width: 0.8"/>
     <use xlink:href="#mdf682b601d" x="170.78847" y="264.672317" style="fill: #e8a838; fill-opacity: 0.85; stroke: #b97c10; stroke-opacity: 0.85; stroke-width: 0.8"/>
     <use xlink:href="#mdf682b601d" x="192.657959" y="324.657031" style="fill: #e8a838; fill-opacity: 0.85; stroke: #b97c10; stroke-opacity: 0.85; stroke-width: 0.8"/>
     <use xlink:href="#mdf682b601d" x="169.039871" y="294.659771" style="fill: #e8a838; fill-opacity: 0.85; stroke: #b97c10; stroke-opacity: 0.85; stroke-width: 0.8"/>
     <use xlink:href="#mdf682b601d" x="215.072551" y="283.679909" style="fill: #e8a838; fill-opacity: 0.85; stroke: #b97c10; stroke-opacity: 0.85; stroke-width: 0.8"/>
     <use xlink:href="#mdf682b601d" x="240.886892" y="270.366903" style="fill: #e8a838; fill-opacity: 0.85; stroke: #b97c10; stroke-opacity: 0.85; stroke-width: 0.8"/>
     <use xlink:href="#mdf682b601d" x="164.114805" y="227.85508" style="fill: #e8a838; fill-opacity: 0.85; stroke: #b97c10; stroke-opacity: 0.85; stroke-width: 0.8"/>
     <use xlink:href="#mdf682b601d" x="175.759052" y="191.01094" style="fill: #e8a838; fill-opacity: 0.85; stroke: #b97c10; stroke-opacity: 0.85; stroke-width: 0.8"/>
     <use xlink:href="#mdf682b601d" x="137.501099" y="259.401225" style="fill: #e8a838; fill-opacity: 0.85; stroke: #b97c10; stroke-opacity: 0.85; stroke-width: 0.8"/>
     <use xlink:href="#mdf682b601d" x="173.558612" y="172.091956" style="fill: #e8a838; fill-opacity: 0.85; stroke: #b97c10; stroke-opacity: 0.85; stroke-width: 0.8"/>
     <use xlink:href="#mdf682b601d" x="190.411812" y="290.742665" style="fill: #e8a838; fill-opacity: 0.85; stroke: #b97c10; stroke-opacity: 0.85; stroke-width: 0.8"/>
     <use xlink:href="#mdf682b601d" x="220.958951" y="231.36617" style="fill: #e8a838; fill-opacity: 0.85; stroke: #b97c10; stroke-opacity: 0.85; stroke-width: 0.8"/>
     <use xlink:href="#mdf682b601d" x="195.42477" y="199.131191" style="fill: #e8a838; fill-opacity: 0.85; stroke: #b97c10; stroke-opacity: 0.85; stroke-width: 0.8"/>
     <use xlink:href="#mdf682b601d" x="130.268641" y="246.404278" style="fill: #e8a838; fill-opacity: 0.85; stroke: #b97c10; stroke-opacity: 0.85; stroke-width: 0.8"/>
     <use xlink:href="#mdf682b601d" x="195.95718" y="295.315724" style="fill: #e8a838; fill-opacity: 0.85; stroke: #b97c10; stroke-opacity: 0.85; stroke-width: 0.8"/>
     <use xlink:href="#mdf682b601d" x="226.102808" y="305.724294" style="fill: #e8a838; fill-opacity: 0.85; stroke: #b97c10; stroke-opacity: 0.85; stroke-width: 0.8"/>
     <use xlink:href="#mdf682b601d" x="210.900393" y="278.626293" style="fill: #e8a838; fill-opacity: 0.85; stroke: #b97c10; stroke-opacity: 0.85; stroke-width: 0.8"/>
     <use xlink:href="#mdf682b601d" x="194.24833" y="239.035084" style="fill: #e8a838; fill-opacity: 0.85; stroke: #b97c10; stroke-opacity: 0.85; stroke-width: 0.8"/>
     <use xlink:href="#mdf682b601d" x="208.813637" y="310.857315" style="fill: #e8a838; fill-opacity: 0.85; stroke: #b97c10; stroke-opacity: 0.85; stroke-width: 0.8"/>
     <use xlink:href="#mdf682b601d" x="111.577993" y="264.110729" style="fill: #e8a838; fill-opacity: 0.85; stroke: #b97c10; stroke-opacity: 0.85; stroke-width: 0.8"/>
     <use xlink:href="#mdf682b601d" x="144.636187" y="261.19357" style="fill: #e8a838; fill-opacity: 0.85; stroke: #b97c10; stroke-opacity: 0.85; stroke-width: 0.8"/>
     <use xlink:href="#mdf682b601d" x="233.596807" y="220.308802" style="fill: #e8a838; fill-opacity: 0.85; stroke: #b97c10; stroke-opacity: 0.85; stroke-width: 0.8"/>
     <use xlink:href="#mdf682b601d" x="219.059754" y="239.358392" style="fill: #e8a838; fill-opacity: 0.85; stroke: #b97c10; stroke-opacity: 0.85; stroke-width: 0.8"/>
     <use xlink:href="#mdf682b601d" x="150.433708" y="231.140589" style="fill: #e8a838; fill-opacity: 0.85; stroke: #b97c10; stroke-opacity: 0.85; stroke-width: 0.8"/>
     <use xlink:href="#mdf682b601d" x="140.770825" y="290.078876" style="fill: #e8a838; fill-opacity: 0.85; stroke: #b97c10; stroke-opacity: 0.85; stroke-width: 0.8"/>
     <use xlink:href="#mdf682b601d" x="255.883077" y="259.464238" style="fill: #e8a838; fill-opacity: 0.85; stroke: #b97c10; stroke-opacity: 0.85; stroke-width: 0.8"/>
     <use xlink:href="#mdf682b601d" x="222.42504" y="206.109792" style="fill: #e8a838; fill-opacity: 0.85; stroke: #b97c10; stroke-opacity: 0.85; stroke-width: 0.8"/>
     <use xlink:href="#mdf682b601d" x="170.650816" y="164.676927" style="fill: #e8a838; fill-opacity: 0.85; stroke: #b97c10; stroke-opacity: 0.85; stroke-width: 0.8"/>
    </g>
   </g>
   <g id="PathCollection_2">
    <defs>
     <path id="mc1ed938af5" d="M 0 2.738613 
C 0.726289 2.738613 1.422928 2.450055 1.936492 1.936492 
C 2.450055 1.422928 2.738613 0.726289 2.738613 0 
C 2.738613 -0.726289 2.450055 -1.422928 1.936492 -1.936492 
C 1.422928 -2.450055 0.726289 -2.738613 0 -2.738613 
C -0.726289 -2.738613 -1.422928 -2.450055 -1.936492 -1.936492 
C -2.450055 -1.422928 -2.738613 -0.726289 -2.738613 0 
C -2.738613 0.726289 -2.450055 1.422928 -1.936492 1.936492 
C -1.422928 2.450055 -0.726289 2.738613 0 2.738613 
z
" style="stroke: #4a6136; stroke-opacity: 0.85; stroke-width: 0.8"/>
    </defs>
    <g clip-path="url(#pbd5fa4efa2)">
     <use xlink:href="#mc1ed938af5" x="431.538453" y="398.53231" style="fill: #7c9a6e; fill-opacity: 0.85; stroke: #4a6136; stroke-opacity: 0.85; stroke-width: 0.8"/>
     <use xlink:href="#mc1ed938af5" x="360.907964" y="204.198151" style="fill: #7c9a6e; fill-opacity: 0.85; stroke: #4a6136; stroke-opacity: 0.85; stroke-width: 0.8"/>
     <use xlink:href="#mc1ed938af5" x="449.869418" y="215.975166" style="fill: #7c9a6e; fill-opacity: 0.85; stroke: #4a6136; stroke-opacity: 0.85; stroke-width: 0.8"/>
     <use xlink:href="#mc1ed938af5" x="476.965195" y="255.540437" style="fill: #7c9a6e; fill-opacity: 0.85; stroke: #4a6136; stroke-opacity: 0.85; stroke-width: 0.8"/>
     <use xlink:href="#mc1ed938af5" x="367.809149" y="291.762261" style="fill: #7c9a6e; fill-opacity: 0.85; stroke: #4a6136; stroke-opacity: 0.85; stroke-width: 0.8"/>
     <use xlink:href="#mc1ed938af5" x="452.681035" y="332.295663" style="fill: #7c9a6e; fill-opacity: 0.85; stroke: #4a6136; stroke-opacity: 0.85; stroke-width: 0.8"/>
     <use xlink:href="#mc1ed938af5" x="446.864103" y="208.115902" style="fill: #7c9a6e; fill-opacity: 0.85; stroke: #4a6136; stroke-opacity: 0.85; stroke-width: 0.8"/>
     <use xlink:href="#mc1ed938af5" x="444.237803" y="172.918533" style="fill: #7c9a6e; fill-opacity: 0.85; stroke: #4a6136; stroke-opacity: 0.85; stroke-width: 0.8"/>
     <use xlink:href="#mc1ed938af5" x="399.282832" y="184.035039" style="fill: #7c9a6e; fill-opacity: 0.85; stroke: #4a6136; stroke-opacity: 0.85; stroke-width: 0.8"/>
     <use xlink:href="#mc1ed938af5" x="437.299283" y="218.131678" style="fill: #7c9a6e; fill-opacity: 0.85; stroke: #4a6136; stroke-opacity: 0.85; stroke-width: 0.8"/>
     <use xlink:href="#mc1ed938af5" x="478.323726" y="285.24999" style="fill: #7c9a6e; fill-opacity: 0.85; stroke: #4a6136; stroke-opacity: 0.85; stroke-width: 0.8"/>
     <use xlink:href="#mc1ed938af5" x="415.564649" y="394.975911" style="fill: #7c9a6e; fill-opacity: 0.85; stroke: #4a6136; stroke-opacity: 0.85; stroke-width: 0.8"/>
     <use xlink:href="#mc1ed938af5" x="347.562814" y="310.607755" style="fill: #7c9a6e; fill-opacity: 0.85; stroke: #4a6136; stroke-opacity: 0.85; stroke-width: 0.8"/>
     <use xlink:href="#mc1ed938af5" x="443.316013" y="264.289115" style="fill: #7c9a6e; fill-opacity: 0.85; stroke: #4a6136; stroke-opacity: 0.85; stroke-width: 0.8"/>
     <use xlink:href="#mc1ed938af5" x="448.401798" y="400.585401" style="fill: #7c9a6e; fill-opacity: 0.85; stroke: #4a6136; stroke-opacity: 0.85; stroke-width: 0.8"/>
     <use xlink:href="#mc1ed938af5" x="416.781347" y="282.605013" style="fill: #7c9a6e; fill-opacity: 0.85; stroke: #4a6136; stroke-opacity: 0.85; stroke-width: 0.8"/>
     <use xlink:href="#mc1ed938af5" x="378.404872" y="280.170281" style="fill: #7c9a6e; fill-opacity: 0.85; stroke: #4a6136; stroke-opacity: 0.85; stroke-width: 0.8"/>
     <use xlink:href="#mc1ed938af5" x="421.204683" y="261.51616" style="fill: #7c9a6e; fill-opacity: 0.85; stroke: #4a6136; stroke-opacity: 0.85; stroke-width: 0.8"/>
     <use xlink:href="#mc1ed938af5" x="444.416037" y="393.279902" style="fill: #7c9a6e; fill-opacity: 0.85; stroke: #4a6136; stroke-opacity: 0.85; stroke-width: 0.8"/>
     <use xlink:href="#mc1ed938af5" x="431.33592" y="356.668453" style="fill: #7c9a6e; fill-opacity: 0.85; stroke: #4a6136; stroke-opacity: 0.85; stroke-width: 0.8"/>
     <use xlink:href="#mc1ed938af5" x="357.351603" y="340.88147" style="fill: #7c9a6e; fill-opacity: 0.85; stroke: #4a6136; stroke-opacity: 0.85; stroke-width: 0.8"/>
     <use xlink:href="#mc1ed938af5" x="360.518995" y="392.276617" style="fill: #7c9a6e; fill-opacity: 0.85; stroke: #4a6136; stroke-opacity: 0.85; stroke-width: 0.8"/>
     <use xlink:href="#mc1ed938af5" x="419.588123" y="188.398779" style="fill: #7c9a6e; fill-opacity: 0.85; stroke: #4a6136; stroke-opacity: 0.85; stroke-width: 0.8"/>
     <use xlink:href="#mc1ed938af5" x="472.07422" y="345.049577" style="fill: #7c9a6e; fill-opacity: 0.85; stroke: #4a6136; stroke-opacity: 0.85; stroke-width: 0.8"/>
     <use xlink:href="#mc1ed938af5" x="399.170798" y="287.241049" style="fill: #7c9a6e; fill-opacity: 0.85; stroke: #4a6136; stroke-opacity: 0.85; stroke-width: 0.8"/>
     <use xlink:href="#mc1ed938af5" x="441.4225" y="328.416655" style="fill: #7c9a6e; fill-opacity: 0.85; stroke: #4a6136; stroke-opacity: 0.85; stroke-width: 0.8"/>
     <use xlink:href="#mc1ed938af5" x="382.989055" y="199.324073" style="fill: #7c9a6e; fill-opacity: 0.85; stroke: #4a6136; stroke-opacity: 0.85; stroke-width: 0.8"/>
     <use xlink:href="#mc1ed938af5" x="442.069015" y="217.763246" style="fill: #7c9a6e; fill-opacity: 0.85; stroke: #4a6136; stroke-opacity: 0.85; stroke-width: 0.8"/>
     <use xlink:href="#mc1ed938af5" x="338.931706" y="265.909552" style="fill: #7c9a6e; fill-opacity: 0.85; stroke: #4a6136; stroke-opacity: 0.85; stroke-width: 0.8"/>
     <use xlink:href="#mc1ed938af5" x="416.626111" y="464.720015" style="fill: #7c9a6e; fill-opacity: 0.85; stroke: #4a6136; stroke-opacity: 0.85; stroke-width: 0.8"/>
     <use xlink:href="#mc1ed938af5" x="437.081021" y="306.649356" style="fill: #7c9a6e; fill-opacity: 0.85; stroke: #4a6136; stroke-opacity: 0.85; stroke-width: 0.8"/>
     <use xlink:href="#mc1ed938af5" x="385.677289" y="262.38212" style="fill: #7c9a6e; fill-opacity: 0.85; stroke: #4a6136; stroke-opacity: 0.85; stroke-width: 0.8"/>
     <use xlink:href="#mc1ed938af5" x="467.713051" y="239.936866" style="fill: #7c9a6e; fill-opacity: 0.85; stroke: #4a6136; stroke-opacity: 0.85; stroke-width: 0.8"/>
     <use xlink:href="#mc1ed938af5" x="347.650795" y="353.599214" style="fill: #7c9a6e; fill-opacity: 0.85; stroke: #4a6136; stroke-opacity: 0.85; stroke-width: 0.8"/>
     <use xlink:href="#mc1ed938af5" x="435.822635" y="182.607032" style="fill: #7c9a6e; fill-opacity: 0.85; stroke: #4a6136; stroke-opacity: 0.85; stroke-width: 0.8"/>
     <use xlink:href="#mc1ed938af5" x="427.441362" y="402.832868" style="fill: #7c9a6e; fill-opacity: 0.85; stroke: #4a6136; stroke-opacity: 0.85; stroke-width: 0.8"/>
     <use xlink:href="#mc1ed938af5" x="478.089647" y="356.65622" style="fill: #7c9a6e; fill-opacity: 0.85; stroke: #4a6136; stroke-opacity: 0.85; stroke-width: 0.8"/>
     <use xlink:href="#mc1ed938af5" x="384.013585" y="244.766267" style="fill: #7c9a6e; fill-opacity: 0.85; stroke: #4a6136; stroke-opacity: 0.85; stroke-width: 0.8"/>
     <use xlink:href="#mc1ed938af5" x="428.510427" y="306.857803" style="fill: #7c9a6e; fill-opacity: 0.85; stroke: #4a6136; stroke-opacity: 0.85; stroke-width: 0.8"/>
     <use xlink:href="#mc1ed938af5" x="376.09494" y="169.965717" style="fill: #7c9a6e; fill-opacity: 0.85; stroke: #4a6136; stroke-opacity: 0.85; stroke-width: 0.8"/>
     <use xlink:href="#mc1ed938af5" x="344.66434" y="297.083971" style="fill: #7c9a6e; fill-opacity: 0.85; stroke: #4a6136; stroke-opacity: 0.85; stroke-width: 0.8"/>
     <use xlink:href="#mc1ed938af5" x="362.120486" y="354.670547" style="fill: #7c9a6e; fill-opacity: 0.85; stroke: #4a6136; stroke-opacity: 0.85; stroke-width: 0.8"/>
     <use xlink:href="#mc1ed938af5" x="479.145371" y="336.755673" style="fill: #7c9a6e; fill-opacity: 0.85; stroke: #4a6136; stroke-opacity: 0.85; stroke-width: 0.8"/>
     <use xlink:href="#mc1ed938af5" x="461.288173" y="386.764332" style="fill: #7c9a6e; fill-opacity: 0.85; stroke: #4a6136; stroke-opacity: 0.85; stroke-width: 0.8"/>
     <use xlink:href="#mc1ed938af5" x="373.944208" y="399.836844" style="fill: #7c9a6e; fill-opacity: 0.85; stroke: #4a6136; stroke-opacity: 0.85; stroke-width: 0.8"/>
     <use xlink:href="#mc1ed938af5" x="346.518909" y="266.11567" style="fill: #7c9a6e; fill-opacity: 0.85; stroke: #4a6136; stroke-opacity: 0.85; stroke-width: 0.8"/>
     <use xlink:href="#mc1ed938af5" x="432.556067" y="269.566861" style="fill: #7c9a6e; fill-opacity: 0.85; stroke: #4a6136; stroke-opacity: 0.85; stroke-width: 0.8"/>
     <use xlink:href="#mc1ed938af5" x="397.483313" y="219.57149" style="fill: #7c9a6e; fill-opacity: 0.85; stroke: #4a6136; stroke-opacity: 0.85; stroke-width: 0.8"/>
     <use xlink:href="#mc1ed938af5" x="363.632113" y="363.179213" style="fill: #7c9a6e; fill-opacity: 0.85; stroke: #4a6136; stroke-opacity: 0.85; stroke-width: 0.8"/>
     <use xlink:href="#mc1ed938af5" x="370.450117" y="191.921085" style="fill: #7c9a6e; fill-opacity: 0.85; stroke: #4a6136; stroke-opacity: 0.85; stroke-width: 0.8"/>
     <use xlink:href="#mc1ed938af5" x="427.185115" y="330.436053" style="fill: #7c9a6e; fill-opacity: 0.85; stroke: #4a6136; stroke-opacity: 0.85; stroke-width: 0.8"/>
     <use xlink:href="#mc1ed938af5" x="434.644726" y="199.95933" style="fill: #7c9a6e; fill-opacity: 0.85; stroke: #4a6136; stroke-opacity: 0.85; stroke-width: 0.8"/>
     <use xlink:href="#mc1ed938af5" x="475.579356" y="340.625716" style="fill: #7c9a6e; fill-opacity: 0.85; stroke: #4a6136; stroke-opacity: 0.85; stroke-width: 0.8"/>
     <use xlink:href="#mc1ed938af5" x="449.127682" y="361.839087" style="fill: #7c9a6e; fill-opacity: 0.85; stroke: #4a6136; stroke-opacity: 0.85; stroke-width: 0.8"/>
     <use xlink:href="#mc1ed938af5" x="356.855713" y="292.790369" style="fill: #7c9a6e; fill-opacity: 0.85; stroke: #4a6136; stroke-opacity: 0.85; stroke-width: 0.8"/>
    </g>
   </g>
   <g id="line2d_17">
    <path d="M 181.206587 376.781456 
L 181.206587 164.676927 
" clip-path="url(#pbd5fa4efa2)" style="fill: none; stroke: #6e6e6e; stroke-width: 1.5; stroke-linecap: round"/>
   </g>
   <g id="line2d_18">
    <path d="M 181.206587 288.740583 
L 181.206587 230.046668 
" clip-path="url(#pbd5fa4efa2)" style="fill: none; stroke: #6e6e6e; stroke-width: 6; stroke-linecap: round"/>
   </g>
   <g id="line2d_19">
    <path d="M 409.671694 464.720015 
L 409.671694 169.965717 
" clip-path="url(#pbd5fa4efa2)" style="fill: none; stroke: #6e6e6e; stroke-width: 1.5; stroke-linecap: round"/>
   </g>
   <g id="line2d_20">
    <path d="M 409.671694 354.13488 
L 409.671694 229.754178 
" clip-path="url(#pbd5fa4efa2)" style="fill: none; stroke: #6e6e6e; stroke-width: 6; stroke-linecap: round"/>
   </g>
   <g id="line2d_21">
    <path d="M 161.787053 255.424685 
L 200.626121 255.424685 
" clip-path="url(#pbd5fa4efa2)" style="fill: none; stroke: #fcfcfa; stroke-width: 4.9; stroke-linecap: round"/>
    <path d="M 161.787053 255.424685 
L 200.626121 255.424685 
" clip-path="url(#pbd5fa4efa2)" style="fill: none; stroke: #141413; stroke-width: 2.8; stroke-linecap: round"/>
   </g>
   <g id="line2d_22">
    <path d="M 390.25216 294.16007 
L 429.091228 294.16007 
" clip-path="url(#pbd5fa4efa2)" style="fill: none; stroke: #fcfcfa; stroke-width: 4.9; stroke-linecap: round"/>
    <path d="M 390.25216 294.16007 
L 429.091228 294.16007 
" clip-path="url(#pbd5fa4efa2)" style="fill: none; stroke: #141413; stroke-width: 2.8; stroke-linecap: round"/>
   </g>
   <g id="line2d_23">
    <defs>
     <path id="mf1cc0aef24" d="M 0 3 
C 0.795609 3 1.55874 2.683901 2.12132 2.12132 
C 2.683901 1.55874 3 0.795609 3 0 
C 3 -0.795609 2.683901 -1.55874 2.12132 -2.12132 
C 1.55874 -2.683901 0.795609 -3 0 -3 
C -0.795609 -3 -1.55874 -2.683901 -2.12132 -2.12132 
C -2.683901 -1.55874 -3 -0.795609 -3 0 
C -3 0.795609 -2.683901 1.55874 -2.12132 2.12132 
C -1.55874 2.683901 -0.795609 3 0 3 
z
" style="stroke: #6e6e6e; stroke-width: 1.6"/>
    </defs>
    <g clip-path="url(#pbd5fa4efa2)">
     <use xlink:href="#mf1cc0aef24" x="181.206587" y="259.432732" style="fill: #fcfcfa; stroke: #6e6e6e; stroke-width: 1.6"/>
    </g>
   </g>
   <g id="line2d_24">
    <g clip-path="url(#pbd5fa4efa2)">
     <use xlink:href="#mf1cc0aef24" x="409.671694" y="291.762261" style="fill: #fcfcfa; stroke: #6e6e6e; stroke-width: 1.6"/>
    </g>
   </g>
   <g id="text_11">
    <g id="patch_5">
     <path d="M 146.744087 507.70909 
L 215.669087 507.70909 
L 215.669087 481.739558 
L 146.744087 481.739558 
z
" style="fill: #fcfcfa"/>
    </g>
    <text style="font-weight: 700; font-size: 20px; font-family: 'Arial', 'Verdana', 'DejaVu Sans', sans-serif; text-anchor: middle; fill: #141413" x="181.206587" y="499.900105" transform="rotate(-0 181.206587 499.900105)">−0.060</text>
   </g>
   <g id="text_12">
    <g id="patch_6">
     <path d="M 375.209194 507.70909 
L 444.134194 507.70909 
L 444.134194 481.739558 
L 375.209194 481.739558 
z
" style="fill: #fcfcfa"/>
    </g>
    <text style="font-weight: 700; font-size: 20px; font-family: 'Arial', 'Verdana', 'DejaVu Sans', sans-serif; text-anchor: middle; fill: #141413" x="409.671694" y="499.900105" transform="rotate(-0 409.671694 499.900105)">−0.724</text>
   </g>
   <g id="line2d_25">
    <path d="M 181.206587 117.270119 
L 181.206587 110.669171 
L 409.671694 110.669171 
L 409.671694 117.270119 
" clip-path="url(#pbd5fa4efa2)" style="fill: none; stroke: #5c5b57; stroke-width: 1.6; stroke-linecap: square"/>
   </g>
   <g id="text_13">
    <text style="font-weight: 700; font-size: 20px; font-family: 'Arial', 'Verdana', 'DejaVu Sans', sans-serif; text-anchor: middle; fill: #141413" x="295.439141" y="116.243546" transform="rotate(-0 295.439141 116.243546)">*  *</text>
   </g>
  </g>
  <g id="text_14">
   <text style="font-weight: 700; font-size: 27px; font-family: 'Arial', 'Verdana', 'DejaVu Sans', sans-serif; text-anchor: middle; fill: #141413" x="270.242852" y="26.856738" transform="rotate(-0 270.242852 26.856738)">Two groups</text>
  </g>
  <g id="text_15">
   <text style="font-size: 19px; font-family: 'Georgia', 'DejaVu Serif', serif; text-anchor: middle; fill: #5c5b57" x="270.242852" y="55.320605" transform="rotate(-0 270.242852 55.320605)">one call: marks, limits, printed means, bracket</text>
  </g>
 </g>
 <defs>
  <clipPath id="pbd5fa4efa2">
   <rect x="57.83543" y="74.664" width="475.207422" height="450.064633"/>
  </clipPath>
 </defs>
</svg>
